<?xml version="1.0" encoding="utf-8"?>
<!-- Generator: Adobe Illustrator 24.1.2, SVG Export Plug-In . SVG Version: 6.00 Build 0)  -->
<svg version="1.1" id="Capa_1" xmlns="http://www.w3.org/2000/svg" xmlns:xlink="http://www.w3.org/1999/xlink" x="0px" y="0px"
	 viewBox="0 0 371 101" style="enable-background:new 0 0 371 101;" xml:space="preserve">
<style type="text/css">
	.st0{fill:#2E3A96;}
	.st1{fill:#4D4C4D;}
	.st2{fill:#F16422;}
</style>
<g>
	<g>
		<g>
			<g>
				<path class="st0" d="M57.5,44.6l-6.9-26.8l-11.3,24c-0.5,1.1-1.2,1.9-1.9,2.5c-0.7,0.6-1.6,0.9-2.7,0.9c-1.1,0-2-0.3-2.7-0.9
					c-0.7-0.6-1.4-1.4-1.9-2.5l-11.3-24l-6.9,26.8H2.9L13.3,5.3c0.6-2.5,2.1-3.7,4.4-3.7c0.9,0,1.8,0.3,2.6,0.8
					c0.8,0.5,1.5,1.3,2,2.2l12.6,27l12.6-27c0.4-1,1-1.7,1.8-2.2c0.7-0.5,1.6-0.8,2.6-0.8c2.2,0,3.7,1.2,4.3,3.7l10.3,39.3H57.5z"/>
				<path class="st0" d="M119.9,44.6v-9.1h32c1.6,0,2.9-0.4,3.8-1.2c0.9-0.8,1.3-1.8,1.3-3.2c0-1.4-0.4-2.5-1.3-3.3
					c-0.9-0.8-2.2-1.2-3.8-1.2h-19.2c-2.1,0-4-0.3-5.6-0.9c-1.7-0.6-3.1-1.4-4.2-2.5c-1.2-1.1-2.1-2.4-2.7-3.9
					c-0.6-1.5-0.9-3.1-0.9-4.9c0-1.8,0.3-3.4,0.9-4.9c0.6-1.5,1.4-2.8,2.6-3.9c1.1-1.1,2.6-1.9,4.3-2.6c1.7-0.6,3.6-0.9,5.9-0.9
					h30.7v9.1h-30.7c-1.3,0-2.3,0.4-3,1.1c-0.7,0.7-1.1,1.7-1.1,3c0,1.3,0.4,2.3,1.1,3c0.8,0.7,1.8,1.1,3,1.1h19.1
					c4.5,0,7.9,1,10.2,3c2.3,2,3.5,5.2,3.5,9.4c0,1.8-0.3,3.5-0.8,5.1c-0.6,1.6-1.4,2.9-2.6,4c-1.1,1.1-2.6,2-4.3,2.7
					c-1.7,0.6-3.7,1-6,1H119.9z"/>
				<path class="st0" d="M171.6,44.6V2.2h38.6v9.1h-29.5v24.2h29.5v9.1H171.6z M186,26.6v-7.2h22.5v7.2H186z"/>
				<path class="st0" d="M256.4,44.6l-10.3-11.6h-13.2v-7.8h16.5c2.2,0,3.9-0.6,5.1-1.9c1.2-1.2,1.8-3,1.8-5.3c0-2.3-0.6-4-1.8-5.1
					c-1.2-1.2-2.9-1.8-5.1-1.8h-21.7v33.3h-9.1V2.2h30.8c2.5,0,4.7,0.4,6.7,1.1c1.9,0.7,3.6,1.8,5,3.2c1.4,1.4,2.4,3,3.1,5
					c0.7,1.9,1.1,4.1,1.1,6.5c0,3.5-0.8,6.5-2.3,8.8c-1.5,2.3-3.6,4-6.3,5.1l12.7,12.8H256.4z"/>
				<path class="st0" d="M275.2,44.6V2.2h38.6v9.1h-29.5v24.2h29.5v9.1H275.2z M289.6,26.6v-7.2h22.5v7.2H289.6z"/>
				<path class="st0" d="M336.6,33.2v-8.8h15.8c2.2,0,3.9-0.6,5.2-1.8c1.2-1.2,1.9-2.8,1.9-4.8c0-2-0.6-3.6-1.9-4.8
					c-1.2-1.2-3-1.8-5.2-1.8h-21.1v33.3h-9.1V2.2h30.2c2.5,0,4.7,0.4,6.7,1.1c2,0.7,3.7,1.7,5,3.1c1.4,1.3,2.4,2.9,3.1,4.8
					c0.7,1.9,1.1,4,1.1,6.4s-0.4,4.5-1.1,6.4c-0.7,1.9-1.8,3.6-3.1,4.9c-1.4,1.4-3,2.5-5,3.2c-2,0.8-4.2,1.1-6.7,1.1H336.6z"/>
			</g>
		</g>
	</g>
	<g>
		<path class="st1" d="M77.9,58.5l3.8,10l3.8-10h2.9v13H86v-4.3l0.2-5.8l-3.9,10h-1.6l-3.8-10l0.2,5.7v4.3h-2.3v-13H77.9z"/>
		<path class="st1" d="M90.9,66.6c0-0.9,0.2-1.8,0.6-2.6c0.4-0.8,0.9-1.3,1.6-1.8c0.7-0.4,1.5-0.6,2.3-0.6c1.3,0,2.4,0.4,3.2,1.3
			s1.3,2,1.3,3.3l0,0.5c0,1-0.2,1.8-0.6,2.6c-0.4,0.8-0.9,1.3-1.6,1.7c-0.7,0.4-1.5,0.6-2.4,0.6c-1.4,0-2.5-0.5-3.3-1.4
			c-0.8-0.9-1.2-2.1-1.2-3.6V66.6z M93.1,66.8c0,1,0.2,1.8,0.6,2.3c0.4,0.6,1,0.8,1.7,0.8c0.7,0,1.3-0.3,1.7-0.9s0.6-1.4,0.6-2.5
			c0-1-0.2-1.8-0.6-2.3c-0.4-0.6-1-0.9-1.7-0.9c-0.7,0-1.3,0.3-1.7,0.8C93.3,64.8,93.1,65.7,93.1,66.8z"/>
		<path class="st1" d="M105,59.5v2.4h1.7v1.6H105v5.4c0,0.4,0.1,0.6,0.2,0.8s0.4,0.2,0.8,0.2c0.3,0,0.5,0,0.8-0.1v1.7
			c-0.5,0.1-1,0.2-1.4,0.2c-1.7,0-2.5-0.9-2.5-2.8v-5.5h-1.6v-1.6h1.6v-2.4H105z"/>
		<path class="st1" d="M108.2,66.6c0-0.9,0.2-1.8,0.6-2.6s0.9-1.3,1.6-1.8c0.7-0.4,1.5-0.6,2.3-0.6c1.3,0,2.4,0.4,3.2,1.3
			s1.3,2,1.3,3.3l0,0.5c0,1-0.2,1.8-0.6,2.6s-0.9,1.3-1.6,1.7c-0.7,0.4-1.5,0.6-2.4,0.6c-1.4,0-2.5-0.5-3.3-1.4
			c-0.8-0.9-1.2-2.1-1.2-3.6V66.6z M110.4,66.8c0,1,0.2,1.8,0.6,2.3c0.4,0.6,1,0.8,1.7,0.8s1.3-0.3,1.7-0.9s0.6-1.4,0.6-2.5
			c0-1-0.2-1.8-0.6-2.3c-0.4-0.6-1-0.9-1.7-0.9c-0.7,0-1.3,0.3-1.7,0.8C110.6,64.8,110.4,65.7,110.4,66.8z"/>
		<path class="st1" d="M124.7,63.9c-0.3,0-0.6-0.1-0.9-0.1c-1,0-1.7,0.4-2,1.1v6.6h-2.2v-9.7h2.1l0.1,1.1c0.5-0.8,1.3-1.3,2.2-1.3
			c0.3,0,0.6,0,0.8,0.1L124.7,63.9z"/>
		<path class="st1" d="M130.7,71.7c-1.4,0-2.5-0.4-3.4-1.3c-0.9-0.9-1.3-2-1.3-3.5v-0.3c0-1,0.2-1.8,0.6-2.6
			c0.4-0.8,0.9-1.4,1.6-1.8c0.7-0.4,1.4-0.6,2.3-0.6c1.3,0,2.3,0.4,3.1,1.3s1.1,2,1.1,3.6v0.9h-6.3c0.1,0.8,0.3,1.4,0.8,1.9
			c0.5,0.5,1.1,0.7,1.8,0.7c1,0,1.8-0.4,2.4-1.2l1.2,1.1c-0.4,0.6-0.9,1-1.6,1.3C132.2,71.6,131.5,71.7,130.7,71.7z M130.4,63.4
			c-0.6,0-1.1,0.2-1.4,0.6c-0.4,0.4-0.6,1-0.7,1.7h4.1v-0.2c0-0.7-0.2-1.3-0.6-1.7C131.5,63.6,131,63.4,130.4,63.4z"/>
		<path class="st1" d="M142.2,68.9c0-0.4-0.2-0.7-0.5-0.9c-0.3-0.2-0.8-0.4-1.6-0.5c-0.7-0.2-1.4-0.4-1.9-0.6
			c-1.1-0.5-1.6-1.3-1.6-2.3c0-0.8,0.4-1.5,1.1-2.1s1.6-0.8,2.7-0.8c1.2,0,2.1,0.3,2.8,0.9c0.7,0.6,1.1,1.3,1.1,2.2h-2.2
			c0-0.4-0.2-0.8-0.5-1s-0.7-0.4-1.2-0.4c-0.5,0-0.9,0.1-1.2,0.3s-0.5,0.5-0.5,0.9c0,0.3,0.1,0.6,0.4,0.8c0.3,0.2,0.8,0.4,1.7,0.6
			c0.9,0.2,1.5,0.4,2,0.7c0.5,0.3,0.8,0.6,1.1,0.9s0.4,0.8,0.4,1.3c0,0.9-0.4,1.6-1.1,2.1c-0.7,0.5-1.7,0.8-2.8,0.8
			c-0.8,0-1.5-0.1-2.1-0.4s-1.1-0.7-1.5-1.2c-0.3-0.5-0.5-1-0.5-1.6h2.1c0,0.5,0.2,0.9,0.6,1.2c0.4,0.3,0.8,0.4,1.4,0.4
			c0.6,0,1-0.1,1.3-0.3C142.1,69.6,142.2,69.3,142.2,68.9z"/>
		<path class="st1" d="M158.9,68.2c0-0.6-0.2-1-0.6-1.3c-0.4-0.3-1.1-0.6-2.2-0.9c-1.1-0.3-1.9-0.7-2.5-1.1
			c-1.2-0.7-1.8-1.7-1.8-2.9c0-1.1,0.4-1.9,1.3-2.6s2-1,3.3-1c0.9,0,1.7,0.2,2.4,0.5c0.7,0.3,1.3,0.8,1.7,1.4
			c0.4,0.6,0.6,1.3,0.6,2.1h-2.3c0-0.7-0.2-1.2-0.6-1.6c-0.4-0.4-1-0.6-1.8-0.6c-0.7,0-1.3,0.2-1.7,0.5s-0.6,0.8-0.6,1.3
			c0,0.5,0.2,0.9,0.7,1.2c0.4,0.3,1.2,0.6,2.2,0.9c1,0.3,1.8,0.6,2.4,1c0.6,0.4,1.1,0.8,1.4,1.3c0.3,0.5,0.4,1.1,0.4,1.8
			c0,1.1-0.4,2-1.2,2.6c-0.8,0.6-2,1-3.4,1c-0.9,0-1.8-0.2-2.6-0.5c-0.8-0.3-1.4-0.8-1.8-1.4c-0.4-0.6-0.7-1.3-0.7-2.1h2.3
			c0,0.7,0.2,1.3,0.7,1.7s1.2,0.6,2.1,0.6c0.8,0,1.4-0.2,1.8-0.5C158.7,69.1,158.9,68.7,158.9,68.2z"/>
		<path class="st1" d="M167.8,71.7c-1.4,0-2.5-0.4-3.4-1.3s-1.3-2-1.3-3.5v-0.3c0-1,0.2-1.8,0.6-2.6c0.4-0.8,0.9-1.4,1.6-1.8
			c0.7-0.4,1.4-0.6,2.3-0.6c1.3,0,2.3,0.4,3.1,1.3s1.1,2,1.1,3.6v0.9h-6.3c0.1,0.8,0.3,1.4,0.8,1.9c0.5,0.5,1.1,0.7,1.8,0.7
			c1,0,1.8-0.4,2.4-1.2l1.2,1.1c-0.4,0.6-0.9,1-1.6,1.3C169.3,71.6,168.6,71.7,167.8,71.7z M167.5,63.4c-0.6,0-1.1,0.2-1.4,0.6
			s-0.6,1-0.7,1.7h4.1v-0.2c0-0.7-0.2-1.3-0.6-1.7C168.6,63.6,168.1,63.4,167.5,63.4z"/>
		<path class="st1" d="M178.9,63.9c-0.3,0-0.6-0.1-0.9-0.1c-1,0-1.7,0.4-2,1.1v6.6h-2.2v-9.7h2.1l0.1,1.1c0.5-0.8,1.3-1.3,2.2-1.3
			c0.3,0,0.6,0,0.8,0.1L178.9,63.9z"/>
		<path class="st1" d="M184.4,68.8l2.1-6.9h2.2l-3.4,9.7h-1.9l-3.4-9.7h2.3L184.4,68.8z"/>
		<path class="st1" d="M190.6,59.3c0-0.3,0.1-0.6,0.3-0.8c0.2-0.2,0.5-0.3,0.9-0.3c0.4,0,0.7,0.1,0.9,0.3s0.3,0.5,0.3,0.8
			c0,0.3-0.1,0.6-0.3,0.8s-0.5,0.3-0.9,0.3c-0.4,0-0.7-0.1-0.9-0.3C190.7,59.9,190.6,59.7,190.6,59.3z M192.9,71.6h-2.2v-9.7h2.2
			V71.6z"/>
		<path class="st1" d="M199.8,70c0.5,0,1-0.2,1.4-0.5c0.4-0.3,0.5-0.7,0.6-1.2h2.1c0,0.6-0.2,1.2-0.6,1.7c-0.4,0.5-0.8,0.9-1.4,1.2
			s-1.3,0.5-2,0.5c-1.4,0-2.4-0.4-3.2-1.3c-0.8-0.9-1.2-2.1-1.2-3.6v-0.2c0-1.5,0.4-2.7,1.2-3.5c0.8-0.9,1.9-1.3,3.2-1.3
			c1.2,0,2.1,0.3,2.8,1s1.1,1.6,1.1,2.6h-2.1c0-0.6-0.2-1-0.6-1.4c-0.4-0.4-0.8-0.5-1.4-0.5c-0.7,0-1.2,0.3-1.6,0.8
			c-0.4,0.5-0.6,1.3-0.6,2.3v0.3c0,1.1,0.2,1.8,0.6,2.4C198.6,69.7,199.1,70,199.8,70z"/>
		<path class="st1" d="M206,59.3c0-0.3,0.1-0.6,0.3-0.8s0.5-0.3,0.9-0.3s0.7,0.1,0.9,0.3c0.2,0.2,0.3,0.5,0.3,0.8
			c0,0.3-0.1,0.6-0.3,0.8c-0.2,0.2-0.5,0.3-0.9,0.3s-0.7-0.1-0.9-0.3S206,59.7,206,59.3z M208.3,71.6h-2.2v-9.7h2.2V71.6z"/>
		<path class="st1" d="M210.8,66.6c0-0.9,0.2-1.8,0.6-2.6s0.9-1.3,1.6-1.8c0.7-0.4,1.5-0.6,2.3-0.6c1.3,0,2.4,0.4,3.2,1.3
			c0.8,0.8,1.3,2,1.3,3.3l0,0.5c0,1-0.2,1.8-0.6,2.6c-0.4,0.8-0.9,1.3-1.6,1.7c-0.7,0.4-1.5,0.6-2.4,0.6c-1.4,0-2.5-0.5-3.3-1.4
			c-0.8-0.9-1.2-2.1-1.2-3.6V66.6z M213,66.8c0,1,0.2,1.8,0.6,2.3s1,0.8,1.7,0.8s1.3-0.3,1.7-0.9s0.6-1.4,0.6-2.5
			c0-1-0.2-1.8-0.6-2.3c-0.4-0.6-1-0.9-1.7-0.9c-0.7,0-1.3,0.3-1.7,0.8C213.2,64.8,213,65.7,213,66.8z"/>
		<path class="st1" d="M227.6,68.9c0-0.4-0.2-0.7-0.5-0.9c-0.3-0.2-0.8-0.4-1.6-0.5s-1.4-0.4-1.9-0.6c-1.1-0.5-1.6-1.3-1.6-2.3
			c0-0.8,0.4-1.5,1.1-2.1c0.7-0.6,1.6-0.8,2.7-0.8c1.2,0,2.1,0.3,2.8,0.9s1.1,1.3,1.1,2.2h-2.2c0-0.4-0.2-0.8-0.5-1
			s-0.7-0.4-1.2-0.4c-0.5,0-0.9,0.1-1.2,0.3s-0.5,0.5-0.5,0.9c0,0.3,0.1,0.6,0.4,0.8c0.3,0.2,0.8,0.4,1.7,0.6c0.9,0.2,1.5,0.4,2,0.7
			c0.5,0.3,0.8,0.6,1.1,0.9c0.2,0.4,0.4,0.8,0.4,1.3c0,0.9-0.4,1.6-1.1,2.1c-0.7,0.5-1.7,0.8-2.8,0.8c-0.8,0-1.5-0.1-2.1-0.4
			s-1.1-0.7-1.5-1.2c-0.3-0.5-0.5-1-0.5-1.6h2.1c0,0.5,0.2,0.9,0.6,1.2s0.8,0.4,1.4,0.4c0.6,0,1-0.1,1.3-0.3
			C227.4,69.6,227.6,69.3,227.6,68.9z"/>
		<path class="st1" d="M240.7,68.4l2-6.6h2.3L241.1,73c-0.6,1.6-1.6,2.4-3,2.4c-0.3,0-0.7-0.1-1-0.2v-1.7l0.4,0c0.5,0,1-0.1,1.2-0.3
			c0.3-0.2,0.5-0.5,0.7-1l0.3-0.8l-3.4-9.6h2.3L240.7,68.4z"/>
		<path class="st1" d="M256.8,66.5h-2.5v5H252v-13h4.6c1.5,0,2.7,0.3,3.5,1c0.8,0.7,1.2,1.7,1.2,2.9c0,0.9-0.2,1.6-0.6,2.2
			s-1,1-1.8,1.4l2.9,5.4v0.1h-2.4L256.8,66.5z M254.3,64.7h2.3c0.8,0,1.4-0.2,1.8-0.6c0.4-0.4,0.6-0.9,0.6-1.6
			c0-0.7-0.2-1.2-0.6-1.6c-0.4-0.4-1-0.6-1.8-0.6h-2.4V64.7z"/>
		<path class="st1" d="M268.1,71.7c-1.4,0-2.5-0.4-3.4-1.3s-1.3-2-1.3-3.5v-0.3c0-1,0.2-1.8,0.6-2.6c0.4-0.8,0.9-1.4,1.6-1.8
			c0.7-0.4,1.4-0.6,2.3-0.6c1.3,0,2.3,0.4,3.1,1.3c0.7,0.8,1.1,2,1.1,3.6v0.9h-6.3c0.1,0.8,0.3,1.4,0.8,1.9c0.5,0.5,1.1,0.7,1.8,0.7
			c1,0,1.8-0.4,2.4-1.2l1.2,1.1c-0.4,0.6-0.9,1-1.6,1.3C269.6,71.6,268.9,71.7,268.1,71.7z M267.8,63.4c-0.6,0-1.1,0.2-1.4,0.6
			s-0.6,1-0.7,1.7h4.1v-0.2c0-0.7-0.2-1.3-0.6-1.7C268.9,63.6,268.4,63.4,267.8,63.4z"/>
		<path class="st1" d="M282.7,66.8c0,1.5-0.3,2.7-1,3.6c-0.7,0.9-1.6,1.3-2.7,1.3c-1.1,0-1.9-0.3-2.6-1v4.6h-2.2V61.9h2l0.1,1
			c0.6-0.8,1.5-1.2,2.6-1.2c1.2,0,2.1,0.4,2.8,1.3s1,2.1,1,3.7V66.8z M280.5,66.6c0-1-0.2-1.7-0.6-2.3c-0.4-0.6-0.9-0.9-1.7-0.9
			c-0.9,0-1.5,0.4-1.9,1.1v4.3c0.4,0.8,1,1.1,1.9,1.1c0.7,0,1.2-0.3,1.6-0.8C280.3,68.6,280.5,67.8,280.5,66.6z"/>
		<path class="st1" d="M290.8,71.6c-0.1-0.2-0.2-0.5-0.3-0.9c-0.7,0.7-1.5,1.1-2.5,1.1c-1,0-1.8-0.3-2.4-0.8
			c-0.6-0.6-0.9-1.2-0.9-2.1c0-1,0.4-1.8,1.2-2.4c0.8-0.6,1.9-0.8,3.3-0.8h1.3V65c0-0.5-0.1-0.9-0.4-1.2c-0.3-0.3-0.7-0.5-1.3-0.5
			c-0.5,0-0.9,0.1-1.2,0.4c-0.3,0.2-0.5,0.6-0.5,0.9h-2.2c0-0.5,0.2-1,0.5-1.5c0.4-0.5,0.8-0.8,1.4-1.1c0.6-0.3,1.3-0.4,2-0.4
			c1.1,0,2,0.3,2.7,0.9s1,1.4,1,2.4v4.4c0,0.9,0.1,1.6,0.4,2.1v0.2H290.8z M288.4,70c0.4,0,0.8-0.1,1.2-0.3s0.7-0.5,0.9-0.8V67h-1.2
			c-0.8,0-1.4,0.1-1.8,0.4s-0.6,0.7-0.6,1.2c0,0.4,0.1,0.8,0.4,1C287.6,69.9,288,70,288.4,70z"/>
		<path class="st1" d="M300.6,63.9c-0.3,0-0.6-0.1-0.9-0.1c-1,0-1.7,0.4-2,1.1v6.6h-2.2v-9.7h2.1l0.1,1.1c0.5-0.8,1.3-1.3,2.2-1.3
			c0.3,0,0.6,0,0.8,0.1L300.6,63.9z"/>
		<path class="st1" d="M308,71.6c-0.1-0.2-0.2-0.5-0.3-0.9c-0.7,0.7-1.5,1.1-2.5,1.1c-1,0-1.8-0.3-2.4-0.8c-0.6-0.6-0.9-1.2-0.9-2.1
			c0-1,0.4-1.8,1.2-2.4c0.8-0.6,1.9-0.8,3.3-0.8h1.3V65c0-0.5-0.1-0.9-0.4-1.2c-0.3-0.3-0.7-0.5-1.3-0.5c-0.5,0-0.9,0.1-1.2,0.4
			c-0.3,0.2-0.5,0.6-0.5,0.9h-2.2c0-0.5,0.2-1,0.5-1.5c0.4-0.5,0.8-0.8,1.4-1.1c0.6-0.3,1.3-0.4,2-0.4c1.1,0,2,0.3,2.7,0.9
			s1,1.4,1,2.4v4.4c0,0.9,0.1,1.6,0.4,2.1v0.2H308z M305.6,70c0.4,0,0.8-0.1,1.2-0.3c0.4-0.2,0.7-0.5,0.9-0.8V67h-1.2
			c-0.8,0-1.4,0.1-1.8,0.4s-0.6,0.7-0.6,1.2c0,0.4,0.1,0.8,0.4,1C304.8,69.9,305.1,70,305.6,70z"/>
		<path class="st1" d="M316.6,70c0.5,0,1-0.2,1.4-0.5c0.4-0.3,0.5-0.7,0.6-1.2h2.1c0,0.6-0.2,1.2-0.6,1.7c-0.4,0.5-0.8,0.9-1.4,1.2
			s-1.3,0.5-2,0.5c-1.4,0-2.4-0.4-3.2-1.3c-0.8-0.9-1.2-2.1-1.2-3.6v-0.2c0-1.5,0.4-2.7,1.2-3.5c0.8-0.9,1.9-1.3,3.2-1.3
			c1.2,0,2.1,0.3,2.8,1s1.1,1.6,1.1,2.6h-2.1c0-0.6-0.2-1-0.6-1.4c-0.4-0.4-0.8-0.5-1.4-0.5c-0.7,0-1.2,0.3-1.6,0.8
			c-0.4,0.5-0.6,1.3-0.6,2.3v0.3c0,1.1,0.2,1.8,0.6,2.4C315.4,69.7,315.9,70,316.6,70z"/>
		<path class="st1" d="M322.8,59.3c0-0.3,0.1-0.6,0.3-0.8c0.2-0.2,0.5-0.3,0.9-0.3c0.4,0,0.7,0.1,0.9,0.3s0.3,0.5,0.3,0.8
			c0,0.3-0.1,0.6-0.3,0.8s-0.5,0.3-0.9,0.3c-0.4,0-0.7-0.1-0.9-0.3C322.9,59.9,322.8,59.7,322.8,59.3z M325.1,71.6h-2.2v-9.7h2.2
			V71.6z"/>
		<path class="st1" d="M327.6,66.6c0-0.9,0.2-1.8,0.6-2.6s0.9-1.3,1.6-1.8c0.7-0.4,1.5-0.6,2.3-0.6c1.3,0,2.4,0.4,3.2,1.3
			s1.3,2,1.3,3.3l0,0.5c0,1-0.2,1.8-0.6,2.6s-0.9,1.3-1.6,1.7c-0.7,0.4-1.5,0.6-2.4,0.6c-1.4,0-2.5-0.5-3.3-1.4
			c-0.8-0.9-1.2-2.1-1.2-3.6V66.6z M329.8,66.8c0,1,0.2,1.8,0.6,2.3c0.4,0.6,1,0.8,1.7,0.8s1.3-0.3,1.7-0.9c0.4-0.6,0.6-1.4,0.6-2.5
			c0-1-0.2-1.8-0.6-2.3c-0.4-0.6-1-0.9-1.7-0.9c-0.7,0-1.3,0.3-1.7,0.8C330,64.8,329.8,65.7,329.8,66.8z"/>
		<path class="st1" d="M341,61.9l0.1,1.1c0.7-0.9,1.7-1.3,2.8-1.3c2,0,3,1.2,3.1,3.5v6.4h-2.2v-6.3c0-0.6-0.1-1.1-0.4-1.4
			c-0.3-0.3-0.7-0.4-1.3-0.4c-0.9,0-1.5,0.4-2,1.2v6.9H339v-9.7H341z"/>
		<path class="st1" d="M354,71.7c-1.4,0-2.5-0.4-3.4-1.3s-1.3-2-1.3-3.5v-0.3c0-1,0.2-1.8,0.6-2.6c0.4-0.8,0.9-1.4,1.6-1.8
			c0.7-0.4,1.4-0.6,2.3-0.6c1.3,0,2.3,0.4,3.1,1.3c0.7,0.8,1.1,2,1.1,3.6v0.9h-6.3c0.1,0.8,0.3,1.4,0.8,1.9c0.5,0.5,1.1,0.7,1.8,0.7
			c1,0,1.8-0.4,2.4-1.2l1.2,1.1c-0.4,0.6-0.9,1-1.6,1.3C355.5,71.6,354.8,71.7,354,71.7z M353.7,63.4c-0.6,0-1.1,0.2-1.4,0.6
			s-0.6,1-0.7,1.7h4.1v-0.2c0-0.7-0.2-1.3-0.6-1.7C354.8,63.6,354.3,63.4,353.7,63.4z"/>
		<path class="st1" d="M365.5,68.9c0-0.4-0.2-0.7-0.5-0.9c-0.3-0.2-0.8-0.4-1.6-0.5c-0.7-0.2-1.4-0.4-1.9-0.6
			c-1.1-0.5-1.6-1.3-1.6-2.3c0-0.8,0.4-1.5,1.1-2.1c0.7-0.6,1.6-0.8,2.7-0.8c1.2,0,2.1,0.3,2.8,0.9s1.1,1.3,1.1,2.2h-2.2
			c0-0.4-0.2-0.8-0.5-1s-0.7-0.4-1.2-0.4c-0.5,0-0.9,0.1-1.2,0.3c-0.3,0.2-0.5,0.5-0.5,0.9c0,0.3,0.1,0.6,0.4,0.8
			c0.3,0.2,0.8,0.4,1.7,0.6c0.9,0.2,1.5,0.4,2,0.7s0.8,0.6,1.1,0.9s0.4,0.8,0.4,1.3c0,0.9-0.4,1.6-1.1,2.1c-0.7,0.5-1.7,0.8-2.8,0.8
			c-0.8,0-1.5-0.1-2.1-0.4s-1.1-0.7-1.5-1.2c-0.3-0.5-0.5-1-0.5-1.6h2.1c0,0.5,0.2,0.9,0.6,1.2c0.4,0.3,0.8,0.4,1.4,0.4
			c0.6,0,1-0.1,1.3-0.3C365.4,69.6,365.5,69.3,365.5,68.9z"/>
		<path class="st1" d="M12.4,84.3v8.9c0,1.2-0.4,2.2-1.2,3s-1.8,1.2-3.1,1.3l-0.5,0c-1.4,0-2.6-0.4-3.4-1.2C3.4,95.6,3,94.5,3,93.2
			v-8.9h1.7v8.8c0,0.9,0.3,1.7,0.8,2.2s1.3,0.8,2.2,0.8c1,0,1.7-0.3,2.2-0.8c0.5-0.5,0.8-1.3,0.8-2.2v-8.8H12.4z"/>
		<path class="st1" d="M16.7,87.6l0.1,1.2c0.7-0.9,1.7-1.4,2.9-1.4c2,0,3.1,1.2,3.1,3.5v6.4h-1.7v-6.4c0-0.7-0.2-1.2-0.5-1.5
			c-0.3-0.3-0.8-0.5-1.5-0.5c-0.5,0-1,0.1-1.4,0.4c-0.4,0.3-0.7,0.7-0.9,1.1v6.9h-1.7v-9.7H16.7z"/>
		<path class="st1" d="M31.6,97.3c-0.1-0.2-0.2-0.5-0.2-1c-0.8,0.8-1.7,1.2-2.8,1.2c-1,0-1.7-0.3-2.4-0.8c-0.6-0.5-0.9-1.2-0.9-2.1
			c0-1,0.4-1.8,1.2-2.4c0.8-0.6,1.8-0.8,3.2-0.8h1.6v-0.8c0-0.6-0.2-1-0.5-1.4c-0.3-0.3-0.9-0.5-1.5-0.5c-0.6,0-1.1,0.1-1.5,0.4
			c-0.4,0.3-0.6,0.7-0.6,1.1h-1.7c0-0.5,0.2-1,0.5-1.4c0.3-0.5,0.8-0.8,1.4-1.1c0.6-0.3,1.2-0.4,1.9-0.4c1.1,0,2,0.3,2.6,0.8
			c0.6,0.6,1,1.3,1,2.3v4.5c0,0.9,0.1,1.6,0.3,2.1v0.1H31.6z M28.8,96.1c0.5,0,1-0.1,1.5-0.4c0.5-0.3,0.8-0.6,1-1v-2H30
			c-2,0-3,0.6-3,1.8c0,0.5,0.2,0.9,0.5,1.2C27.8,95.9,28.3,96.1,28.8,96.1z"/>
		<path class="st1" d="M44.7,97.5c-1.3,0-2.4-0.4-3.2-1.3c-0.8-0.9-1.2-2-1.2-3.5v-0.3c0-1,0.2-1.8,0.6-2.6c0.4-0.8,0.9-1.3,1.5-1.8
			c0.7-0.4,1.4-0.6,2.1-0.6c1.3,0,2.2,0.4,2.9,1.2s1,2,1,3.6V93h-6.6c0,1,0.3,1.7,0.8,2.3c0.5,0.6,1.2,0.9,2,0.9
			c0.6,0,1.1-0.1,1.5-0.4c0.4-0.2,0.8-0.6,1.1-0.9l1,0.8C47.5,96.9,46.3,97.5,44.7,97.5z M44.5,88.8c-0.7,0-1.2,0.2-1.7,0.7
			c-0.5,0.5-0.7,1.2-0.8,2h4.9v-0.1c0-0.8-0.3-1.5-0.7-2C45.7,89,45.1,88.8,44.5,88.8z"/>
		<path class="st1" d="M52.2,87.6l0,1.1c0.7-0.8,1.7-1.3,2.9-1.3c1.4,0,2.3,0.5,2.8,1.6c0.3-0.5,0.7-0.8,1.3-1.1s1.1-0.4,1.8-0.4
			c2.1,0,3.2,1.1,3.2,3.4v6.5h-1.7v-6.4c0-0.7-0.2-1.2-0.5-1.6c-0.3-0.3-0.8-0.5-1.6-0.5c-0.6,0-1.1,0.2-1.5,0.6
			c-0.4,0.4-0.6,0.9-0.7,1.5v6.4h-1.7V91c0-1.4-0.7-2.1-2.1-2.1c-1.1,0-1.8,0.5-2.2,1.4v7.1h-1.7v-9.7H52.2z"/>
		<path class="st1" d="M75.2,92.6c0,1.5-0.3,2.7-1,3.6s-1.6,1.4-2.7,1.4c-1.2,0-2.1-0.4-2.8-1.1v4.7H67V87.6h1.5l0.1,1.1
			c0.7-0.8,1.6-1.3,2.8-1.3c1.2,0,2.1,0.4,2.8,1.3c0.7,0.9,1,2.1,1,3.7V92.6z M73.5,92.4c0-1.1-0.2-2-0.7-2.6s-1.1-0.9-1.9-0.9
			c-1,0-1.8,0.4-2.3,1.3v4.6c0.5,0.9,1.3,1.3,2.3,1.3c0.8,0,1.4-0.3,1.9-0.9C73.3,94.6,73.5,93.6,73.5,92.4z"/>
		<path class="st1" d="M82.2,89.1c-0.3,0-0.5-0.1-0.8-0.1c-1.1,0-1.8,0.5-2.2,1.4v6.9h-1.7v-9.7h1.6l0,1.1c0.5-0.9,1.3-1.3,2.3-1.3
			c0.3,0,0.6,0,0.7,0.1V89.1z"/>
		<path class="st1" d="M87.9,97.5c-1.3,0-2.4-0.4-3.2-1.3c-0.8-0.9-1.2-2-1.2-3.5v-0.3c0-1,0.2-1.8,0.6-2.6s0.9-1.3,1.5-1.8
			s1.4-0.6,2.1-0.6c1.3,0,2.2,0.4,2.9,1.2c0.7,0.8,1,2,1,3.6V93h-6.6c0,1,0.3,1.7,0.8,2.3c0.5,0.6,1.2,0.9,2,0.9
			c0.6,0,1.1-0.1,1.5-0.4c0.4-0.2,0.8-0.6,1.1-0.9l1,0.8C90.7,96.9,89.5,97.5,87.9,97.5z M87.7,88.8c-0.7,0-1.2,0.2-1.7,0.7
			s-0.7,1.2-0.8,2H90v-0.1c0-0.8-0.3-1.5-0.7-2S88.4,88.8,87.7,88.8z"/>
		<path class="st1" d="M99.5,94.8c0-0.4-0.2-0.8-0.5-1s-0.9-0.5-1.8-0.6c-0.8-0.2-1.5-0.4-2-0.6c-0.5-0.3-0.9-0.5-1.1-0.9
			s-0.4-0.8-0.4-1.2c0-0.8,0.3-1.5,1-2c0.7-0.5,1.5-0.8,2.6-0.8c1.1,0,2,0.3,2.7,0.9c0.7,0.6,1,1.3,1,2.2h-1.7
			c0-0.5-0.2-0.8-0.6-1.2c-0.4-0.3-0.9-0.5-1.5-0.5c-0.6,0-1.1,0.1-1.4,0.4c-0.3,0.3-0.5,0.6-0.5,1c0,0.4,0.2,0.7,0.5,0.9
			c0.3,0.2,0.9,0.4,1.7,0.6c0.8,0.2,1.5,0.4,2,0.7c0.5,0.3,0.9,0.6,1.1,0.9c0.2,0.4,0.4,0.8,0.4,1.3c0,0.9-0.3,1.6-1,2.1
			s-1.6,0.8-2.7,0.8c-0.8,0-1.5-0.1-2.1-0.4s-1.1-0.7-1.4-1.2s-0.5-1-0.5-1.6h1.7c0,0.6,0.3,1,0.7,1.3c0.4,0.3,1,0.5,1.6,0.5
			c0.6,0,1.1-0.1,1.5-0.4C99.3,95.5,99.5,95.2,99.5,94.8z"/>
		<path class="st1" d="M109.6,97.3c-0.1-0.2-0.2-0.5-0.2-1c-0.8,0.8-1.7,1.2-2.8,1.2c-1,0-1.7-0.3-2.4-0.8c-0.6-0.5-0.9-1.2-0.9-2.1
			c0-1,0.4-1.8,1.2-2.4c0.8-0.6,1.8-0.8,3.2-0.8h1.6v-0.8c0-0.6-0.2-1-0.5-1.4c-0.3-0.3-0.9-0.5-1.5-0.5c-0.6,0-1.1,0.1-1.5,0.4
			s-0.6,0.7-0.6,1.1h-1.7c0-0.5,0.2-1,0.5-1.4c0.3-0.5,0.8-0.8,1.4-1.1s1.2-0.4,1.9-0.4c1.1,0,2,0.3,2.6,0.8c0.6,0.6,1,1.3,1,2.3
			v4.5c0,0.9,0.1,1.6,0.3,2.1v0.1H109.6z M106.8,96.1c0.5,0,1-0.1,1.5-0.4s0.8-0.6,1-1v-2H108c-2,0-3,0.6-3,1.8
			c0,0.5,0.2,0.9,0.5,1.2S106.3,96.1,106.8,96.1z"/>
		<path class="st1" d="M118.3,92.4c0-1.5,0.4-2.7,1.1-3.6c0.7-0.9,1.6-1.4,2.8-1.4c1.1,0,2,0.4,2.7,1.2v-5.1h1.7v13.8h-1.5l-0.1-1
			c-0.7,0.8-1.6,1.2-2.8,1.2c-1.1,0-2-0.5-2.7-1.4c-0.7-0.9-1.1-2.1-1.1-3.6V92.4z M119.9,92.6c0,1.1,0.2,2,0.7,2.6
			c0.5,0.6,1.1,0.9,1.9,0.9c1.1,0,1.8-0.5,2.3-1.4v-4.5c-0.5-0.9-1.3-1.4-2.3-1.4c-0.8,0-1.4,0.3-1.9,0.9S119.9,91.4,119.9,92.6z"/>
		<path class="st1" d="M133.3,97.5c-1.3,0-2.4-0.4-3.2-1.3c-0.8-0.9-1.2-2-1.2-3.5v-0.3c0-1,0.2-1.8,0.6-2.6s0.9-1.3,1.5-1.8
			c0.7-0.4,1.4-0.6,2.1-0.6c1.3,0,2.2,0.4,2.9,1.2c0.7,0.8,1,2,1,3.6V93h-6.6c0,1,0.3,1.7,0.8,2.3c0.5,0.6,1.2,0.9,2,0.9
			c0.6,0,1.1-0.1,1.5-0.4c0.4-0.2,0.8-0.6,1.1-0.9l1,0.8C136.1,96.9,134.9,97.5,133.3,97.5z M133.1,88.8c-0.7,0-1.2,0.2-1.7,0.7
			s-0.7,1.2-0.8,2h4.9v-0.1c0-0.8-0.3-1.5-0.7-2C134.3,89,133.8,88.8,133.1,88.8z"/>
		<path class="st1" d="M149.8,84.3h1.7v9.2c0,1.2-0.4,2.2-1.1,2.9c-0.7,0.7-1.7,1.1-3,1.1c-1.3,0-2.3-0.3-3-1s-1.1-1.6-1.1-2.8h1.7
			c0,0.7,0.2,1.3,0.6,1.7c0.4,0.4,1,0.6,1.8,0.6c0.7,0,1.3-0.2,1.7-0.7c0.4-0.4,0.7-1.1,0.7-1.9V84.3z"/>
		<path class="st1" d="M160.2,84.3h1.7v9.2c0,1.2-0.4,2.2-1.1,2.9s-1.7,1.1-3,1.1c-1.3,0-2.3-0.3-3-1c-0.7-0.7-1.1-1.6-1.1-2.8h1.7
			c0,0.7,0.2,1.3,0.6,1.7c0.4,0.4,1,0.6,1.8,0.6c0.7,0,1.3-0.2,1.7-0.7c0.4-0.4,0.7-1.1,0.7-1.9V84.3z"/>
		<path class="st1" d="M172.3,91.6h-5.5v5.8h-1.7v-13h8.1v1.4h-6.4v4.5h5.5V91.6z"/>
		<path class="st1" d="M182.2,97.3h-1.7v-13h1.7V97.3z"/>
		<path class="st1" d="M195.7,97.3h-1.7l-6.6-10v10h-1.7v-13h1.7l6.6,10.1V84.3h1.7V97.3z"/>
		<path class="st1" d="M199,97.3v-13h3.7c1.1,0,2.1,0.3,3,0.8s1.5,1.2,2,2.1c0.5,0.9,0.7,2,0.7,3.2v0.8c0,1.2-0.2,2.3-0.7,3.2
			c-0.5,0.9-1.2,1.6-2,2.1c-0.9,0.5-1.9,0.7-3.1,0.8H199z M200.7,85.7v10.2h1.8c1.3,0,2.4-0.4,3.1-1.2c0.7-0.8,1.1-2,1.1-3.5v-0.8
			c0-1.5-0.3-2.6-1-3.5c-0.7-0.8-1.7-1.2-3-1.3H200.7z"/>
		<path class="st1" d="M220.5,84.3v8.9c0,1.2-0.4,2.2-1.2,3c-0.8,0.8-1.8,1.2-3.1,1.3l-0.5,0c-1.4,0-2.6-0.4-3.4-1.2
			c-0.8-0.8-1.3-1.8-1.3-3.2v-8.9h1.7v8.8c0,0.9,0.3,1.7,0.8,2.2c0.5,0.5,1.3,0.8,2.2,0.8c1,0,1.7-0.3,2.2-0.8s0.8-1.3,0.8-2.2v-8.8
			H220.5z"/>
		<path class="st1" d="M227.3,91.5c-1.5-0.4-2.5-0.9-3.2-1.6c-0.7-0.6-1-1.4-1-2.3c0-1,0.4-1.9,1.2-2.5c0.8-0.7,1.9-1,3.2-1
			c0.9,0,1.7,0.2,2.4,0.5c0.7,0.3,1.2,0.8,1.6,1.4c0.4,0.6,0.6,1.3,0.6,2h-1.7c0-0.8-0.3-1.4-0.8-1.9c-0.5-0.5-1.2-0.7-2.1-0.7
			c-0.8,0-1.5,0.2-2,0.6c-0.5,0.4-0.7,0.9-0.7,1.6c0,0.5,0.2,1,0.7,1.4c0.5,0.4,1.2,0.7,2.3,1s1.9,0.6,2.5,1
			c0.6,0.4,1.1,0.8,1.4,1.3c0.3,0.5,0.4,1.1,0.4,1.7c0,1.1-0.4,1.9-1.2,2.5c-0.8,0.6-1.9,1-3.3,1c-0.9,0-1.7-0.2-2.5-0.5
			c-0.8-0.3-1.4-0.8-1.8-1.4s-0.6-1.3-0.6-2h1.7c0,0.8,0.3,1.4,0.9,1.9c0.6,0.5,1.4,0.7,2.3,0.7c0.9,0,1.6-0.2,2.1-0.6
			c0.5-0.4,0.7-0.9,0.7-1.5c0-0.6-0.2-1.1-0.7-1.5S228.5,91.9,227.3,91.5z"/>
		<path class="st1" d="M243.6,85.7h-4.2v11.6h-1.7V85.7h-4.2v-1.4h10.1V85.7z"/>
		<path class="st1" d="M250.6,92h-3.1v5.3h-1.7v-13h4.3c1.5,0,2.6,0.3,3.4,1s1.2,1.6,1.2,2.9c0,0.8-0.2,1.5-0.7,2.1
			c-0.4,0.6-1,1.1-1.8,1.4l3.1,5.5v0.1h-1.8L250.6,92z M247.6,90.6h2.6c0.9,0,1.5-0.2,2-0.7c0.5-0.4,0.8-1,0.8-1.8
			c0-0.8-0.2-1.4-0.7-1.9c-0.5-0.4-1.2-0.6-2.1-0.7h-2.6V90.6z"/>
		<path class="st1" d="M259.3,97.3h-1.7v-13h1.7V97.3z"/>
		<path class="st1" d="M270,93.9h-5.5l-1.2,3.4h-1.8l5-13h1.5l5,13h-1.8L270,93.9z M265.1,92.5h4.4l-2.2-6.1L265.1,92.5z"/>
		<path class="st1" d="M276.8,95.9h6.2v1.4h-7.9v-13h1.7V95.9z"/>
		<path class="st1" d="M293.9,91.5c-1.5-0.4-2.5-0.9-3.2-1.6c-0.7-0.6-1-1.4-1-2.3c0-1,0.4-1.9,1.2-2.5c0.8-0.7,1.9-1,3.2-1
			c0.9,0,1.7,0.2,2.4,0.5c0.7,0.3,1.2,0.8,1.6,1.4s0.6,1.3,0.6,2H297c0-0.8-0.3-1.4-0.8-1.9c-0.5-0.5-1.2-0.7-2.1-0.7
			c-0.8,0-1.5,0.2-2,0.6c-0.5,0.4-0.7,0.9-0.7,1.6c0,0.5,0.2,1,0.7,1.4s1.2,0.7,2.3,1c1.1,0.3,1.9,0.6,2.5,1
			c0.6,0.4,1.1,0.8,1.4,1.3s0.4,1.1,0.4,1.7c0,1.1-0.4,1.9-1.2,2.5c-0.8,0.6-1.9,1-3.3,1c-0.9,0-1.7-0.2-2.5-0.5
			c-0.8-0.3-1.4-0.8-1.8-1.4s-0.6-1.3-0.6-2h1.7c0,0.8,0.3,1.4,0.9,1.9c0.6,0.5,1.4,0.7,2.3,0.7c0.9,0,1.6-0.2,2.1-0.6
			c0.5-0.4,0.7-0.9,0.7-1.5c0-0.6-0.2-1.1-0.7-1.5C295.9,92.2,295.1,91.9,293.9,91.5z"/>
		<path class="st1" d="M308.4,93.9h-5.5l-1.2,3.4h-1.8l5-13h1.5l5,13h-1.8L308.4,93.9z M303.5,92.5h4.4l-2.2-6.1L303.5,92.5z"/>
		<path class="st1" d="M318.3,97.3v-13h3.7c1.1,0,2.1,0.3,3,0.8s1.5,1.2,2,2.1c0.5,0.9,0.7,2,0.7,3.2v0.8c0,1.2-0.2,2.3-0.7,3.2
			c-0.5,0.9-1.2,1.6-2,2.1c-0.9,0.5-1.9,0.7-3.1,0.8H318.3z M320,85.7v10.2h1.8c1.3,0,2.4-0.4,3.1-1.2c0.7-0.8,1.1-2,1.1-3.5v-0.8
			c0-1.5-0.3-2.6-1-3.5c-0.7-0.8-1.7-1.2-3-1.3H320z"/>
		<path class="st1" d="M337.9,91.3h-5.7v4.6h6.6v1.4h-8.3v-13h8.2v1.4h-6.5v4.2h5.7V91.3z"/>
		<path class="st1" d="M355.7,93.2c-0.2,1.4-0.7,2.4-1.5,3.2c-0.9,0.7-2,1.1-3.4,1.1c-1.5,0-2.8-0.6-3.7-1.7
			c-0.9-1.1-1.4-2.6-1.4-4.4v-1.3c0-1.2,0.2-2.3,0.6-3.2s1-1.6,1.8-2.1c0.8-0.5,1.7-0.7,2.8-0.7c1.4,0,2.5,0.4,3.3,1.2
			c0.8,0.8,1.3,1.8,1.5,3.2h-1.7c-0.1-1-0.5-1.8-1-2.3c-0.5-0.5-1.2-0.7-2.1-0.7c-1.1,0-2,0.4-2.6,1.2c-0.6,0.8-0.9,2-0.9,3.5v1.3
			c0,1.4,0.3,2.5,0.9,3.4c0.6,0.8,1.4,1.3,2.5,1.3c1,0,1.7-0.2,2.2-0.6s0.8-1.2,1-2.3H355.7z"/>
		<path class="st1" d="M362.6,95l3.7-10.8h1.9l-4.8,13h-1.5l-4.8-13h1.9L362.6,95z"/>
	</g>
	<path class="st2" d="M114.9,19.4c0-0.4-0.3-0.7-0.7-0.8l-4-0.7c-0.3-1.1-0.7-2.1-1.2-3.1l2.3-3.4c0.2-0.3,0.2-0.8-0.1-1
		c-1.5-1.8-3.3-3.5-5.2-5c-0.3-0.3-0.7-0.3-1-0.1l-3.2,2.2c-1-0.5-2.1-0.9-3.2-1.3l-0.8-4c-0.1-0.4-0.4-0.7-0.8-0.7
		c-2.4-0.2-4.8-0.2-7.2,0.1c-0.4,0-0.7,0.3-0.8,0.7l-0.7,4c-1,0.3-2,0.8-2.9,1.3l-3.4-2.4c-0.3-0.2-0.7-0.2-1,0.1
		c-1.9,1.5-3.6,3.2-5.2,5c-0.3,0.3-0.3,0.7-0.1,1l2.5,3.6c-0.5,0.9-0.9,1.9-1.3,2.9l-4,0.7c-0.4,0.1-0.6,0.4-0.7,0.8
		c-0.3,2.4-0.3,4.8-0.1,7.2c0,0.4,0.3,0.7,0.7,0.8l4.3,0.8c0.3,1,0.7,1.9,1.2,2.8l-2.4,3.5c-0.2,0.3-0.2,0.7,0.1,1
		c1.5,1.9,3.2,3.6,5,5.2c0.3,0.3,0.7,0.3,1,0.1l3.5-2.4c1,0.6,2,1,3,1.4l0.7,3.9c0.1,0.4,0.4,0.6,0.8,0.7c2.4,0.3,4.8,0.3,7.2,0.1
		c0.4,0,0.7-0.3,0.8-0.7l0.8-4.2c1-0.3,2-0.7,3-1.2l3.5,2.4c0.3,0.2,0.8,0.2,1-0.1c1.8-1.5,3.5-3.3,5-5.2c0.3-0.3,0.3-0.7,0.1-1
		l-2.2-3.1c0.5-1,1-2.1,1.3-3.2l3.9-0.7c0.4-0.1,0.7-0.4,0.7-0.8C115.2,24.2,115.2,21.8,114.9,19.4z M85.9,30.3
		c-4.2-4-3.4-11.4,0.4-15c3.7-3.7,11-3.9,15,0.4c4,4.2,4.1,10.6-0.4,15C96.5,35.2,90.2,34.4,85.9,30.3z"/>
</g>
</svg>
